<svg xmlns="http://www.w3.org/2000/svg" width="20" height="20" viewBox="0 0 20 20">
    <g fill="none" fill-rule="evenodd" stroke="#1A424C" stroke-linecap="round" stroke-linejoin="round" stroke-width="1.5">
        <path d="M2.216 15.992c0-2.294 1.143-3.299 4.32-4.356.65-.216 1.124-.706 1.413-1.478l.273-.727.717.297c.333.139.676.21 1.02.21.345 0 .689-.071 1.018-.208l.717-.3.273.729c.29.772.763 1.26 1.414 1.476 3.177 1.058 4.32 2.063 4.32 4.357 0 1.845-3.645 2.673-7.743 2.675-4.098-.002-7.742-.83-7.742-2.675z"/>
        <path fill="#F6EBDE" d="M9.958 1.494a3.523 3.523 0 0 1 3.52 3.52c0 2.212-.635 3.893-1.868 4.7-.971.675-2.327.675-3.302.004-1.237-.814-1.87-2.497-1.87-4.704 0-1.941 1.579-3.52 3.52-3.52z"/>
    </g>
</svg>
